<?xml version="1.0" encoding="UTF-8"?> <svg xmlns="http://www.w3.org/2000/svg" width="150" height="49" viewBox="0 0 150 49" fill="none"><path d="M16.4 25.1V30.5H4.4V32.8C4.4 34.3 4.8 35.4 5.6 36.2C6.3 37 7.3 37.3 8.5 37.3C10.3 37.3 12.4 36.5 14.6 34.9L16.4 38.6C13.9 40.4 11.2 41.3 8.3 41.3C5.8 41.3 3.8 40.6 2.3 39.2C0.8 37.6 0 35.7 0 33.2V24.7C0 22.2 0.8 20.3 2.5 18.9C4 17.7 6 17.1 8.5 17.1C10.7 17.1 12.6 17.7 14 18.9C15.6 20.3 16.4 22.4 16.4 25.1ZM12.1 24.5C12.1 23.3 11.7 22.4 10.8 21.7C10.1 21.2 9.3 20.9 8.4 20.9C7.2 20.9 6.3 21.2 5.5 21.9C4.7 22.6 4.4 23.5 4.4 24.8V26.8H12.1V24.5Z" fill="#0A71B3"></path><path d="M36.9 39.3L34.5 41.3C33.4 40.8 32.6 40.2 32 39.5C30.4 40.6 28.6 41.2 26.6 41.2C24.4 41.2 22.5 40.6 21 39.3C19.5 38.1 18.8 36.3 18.8 34.2C18.8 32.2 19.5 30.5 20.8 29.1C22.3 27.5 24.3 26.7 26.9 26.7H31.1V24.5C31.1 23.2 30.7 22.3 30 21.6C29.3 21 28.4 20.7 27.4 20.7C25.2 20.7 23.4 21.6 22.1 23.4L19.8 20.6C21.6 18.2 24.2 17.1 27.7 17.1C30.1 17.1 31.9 17.8 33.3 19.2C34.7 20.6 35.4 22.5 35.4 24.8V36.3C35.4 37.3 35.9 38.3 36.9 39.3ZM31.1 36V30.5H27.3C26 30.5 25 30.9 24.3 31.6C23.6 32.3 23.2 33.2 23.2 34.2C23.2 35.9 24 37 25.7 37.5C26.1 37.6 26.5 37.7 27 37.7C28.2 37.6 29.6 37.1 31.1 36Z" fill="#0A71B3"></path><path d="M54 20.1001L51.5 23.0001C50.5 21.6001 49 20.8001 46.9 20.8001C46.1 20.8001 45.4 21.0001 44.8 21.3001C44 21.8001 43.5 22.4001 43.5 23.2001C43.4 24.7001 44.3 25.7001 46.4 26.4001C48.3 27.0001 49.4 27.4001 49.9 27.6001C51.1 28.1001 52.1 28.8001 52.9 29.6001C54.1 30.9001 54.6 32.4001 54.6 34.1001C54.6 36.4001 53.7 38.3001 51.8 39.6001C50.3 40.6001 48.4 41.2001 45.9 41.2001C43 41.2001 40.6 40.1001 38.7 38.0001L41.1 34.8001C42.7 36.4001 44.3 37.2001 46 37.2001C47 37.2001 47.8 37.0001 48.5 36.6001C49.3 36.1001 49.9 35.5001 50.1 34.6001C50.2 34.4001 50.2 34.2001 50.2 33.9001C50.2 32.6001 49.4 31.7001 47.7 31.0001C46.3 30.6001 45 30.1001 43.7 29.6001C42.1 29.0001 40.9 28.1001 40.2 26.9001C39.5 25.9001 39.2 24.8001 39.2 23.6001C39.2 21.7001 39.9 20.1001 41.2 18.9001C42.7 17.6001 44.6 17.0001 47 17.0001C50.1 17.1001 52.4 18.1001 54 20.1001Z" fill="#0A71B3"></path><path d="M74.1 17.6L66.1 43.6C65.7 44.8 65.1 45.8 64.1 46.8C63.1 47.8 62 48.4 60.9 48.6L59.3 45.9C60.7 45.2 61.9 43.7 62.7 41.1C62.3 40.8 59.8 33 55.2 17.6H60L64.2 33.2C64.5 34.2 64.5 35.2 64.5 36L69.6 17.6H74.1Z" fill="#0A71B3"></path><path d="M94.2 33.7C94.2 36 93.4 37.8 91.7 39.2C90.1 40.5 88.1 41.2 85.7 41.2C83.8 41.2 82.1 40.8 80.4 39.9C79.7 40.7 78.9 41.1 78 41.4L75.8 39.1C76.8 38.6 77.3 37.9 77.3 36.9V10.4H81.5V18.6C82.9 17.6 84.6 17.1 86.6 17.1C88.9 17.1 90.7 17.8 92.1 19.1C93.5 20.4 94.2 22.3 94.2 24.7V33.7ZM90 33.8V24.7C90 22.2 88.8 20.9 86.3 20.9C84.6 20.9 83 21.5 81.6 22.6V36.3C82.7 37.1 84.1 37.5 85.8 37.5C86.9 37.5 87.9 37.2 88.6 36.6C89.5 35.9 90 35 90 33.8Z" fill="#4F4C4B"></path><path d="M103.4 10.7001C103.4 11.5001 103.1 12.1001 102.6 12.6001C102.1 13.1001 101.4 13.4001 100.7 13.4001C99.9 13.4001 99.3 13.1001 98.8 12.6001C98.3 12.1001 98 11.4001 98 10.7001C98 10.0001 98.3 9.30006 98.8 8.80006C99.3 8.30006 100 8.00006 100.7 8.00006C101.5 8.00006 102.1 8.30006 102.6 8.80006C103.1 9.30006 103.4 10.0001 103.4 10.7001ZM102.8 17.6001V40.8001H98.6V17.6001H102.8Z" fill="#4F4C4B"></path><path d="M116.5 39.7C114.9 40.7 113.3 41.2 111.9 41.2C109.1 41.2 107.7 39.4 107.7 35.8V10.4H111.9V35.7C111.9 36.7 112.4 37.3 113.3 37.3C114 37.3 114.7 37 115.5 36.3L116.5 39.7Z" fill="#4F4C4B"></path><path d="M127.5 39.7C125.9 40.7 124.3 41.2 122.9 41.2C120.1 41.2 118.7 39.4 118.7 35.8V10.4H122.9V35.7C122.9 36.7 123.4 37.3 124.3 37.3C125 37.3 125.7 37 126.5 36.3L127.5 39.7Z" fill="#4F4C4B"></path><circle cx="138.7" cy="11.3" r="11.3" fill="#F29F00"></circle><path d="M134.459 15.1639C134.761 14.8037 135.675 13.3617 137 12.3197C135.346 12.0755 133.768 11.5882 133.332 11.4297C132.572 11.153 132.18 10.3127 132.457 9.55265C132.733 8.79262 133.574 8.40074 134.334 8.67738C134.742 8.82606 136.37 9.62003 137.745 10.4407C137.429 8.83703 137.228 6.94238 137.228 6.49492C137.228 5.68612 137.884 5.03046 138.692 5.03046C139.501 5.03046 140.157 5.68612 140.157 6.49492C140.157 6.94332 139.955 8.83503 139.638 10.4408C141.017 9.61659 142.656 8.82668 143.066 8.67738C143.826 8.40074 144.667 8.79262 144.943 9.55265C145.22 10.3127 144.828 11.153 144.068 11.4297C143.62 11.5928 142.076 12.0828 140.395 12.319C141.712 13.3593 142.665 14.8061 142.965 15.1639C143.485 15.7834 143.404 16.7072 142.785 17.227C142.165 17.7469 141.241 17.6661 140.721 17.0465C140.438 16.7086 139.477 15.1677 138.693 13.7523C137.908 15.1677 136.986 16.7086 136.703 17.0465C136.183 17.6661 135.259 17.7469 134.639 17.227C134.02 16.7072 133.939 15.7834 134.459 15.1639Z" fill="white"></path></svg> 